<?xml version="1.0" encoding="UTF-8" standalone="no"?>
<!DOCTYPE svg PUBLIC "-//W3C//DTD SVG 1.1//EN" "http://www.w3.org/Graphics/SVG/1.1/DTD/svg11.dtd">
<svg width="100%" height="100%" viewBox="0 0 333 417" version="1.1" xmlns="http://www.w3.org/2000/svg" xmlns:xlink="http://www.w3.org/1999/xlink" xml:space="preserve" xmlns:serif="http://www.serif.com/" style="fill-rule:evenodd;clip-rule:evenodd;stroke-linejoin:round;stroke-miterlimit:2;">
    <g transform="matrix(1,0,0,1,-2.63356,36.5477)">
        <g>
            <path d="M287,245L231,277L174,310L174,269L213,246L251,224L287,245ZM280,245L251,228L177,270L177,304L280,245ZM156,304L156,270L82,228L53,245L156,304ZM42,226L71,209L71,124L42,107L42,226ZM53,89L82,105L156,63L156,29L104,59L53,89ZM177,29L177,63L251,105L280,89L177,29ZM291,107L262,124L262,209L291,226L291,107ZM159,310L103,277L46,245L82,224L121,246L159,269L159,310ZM39,232L39,101L75,122L75,211L39,232ZM46,89L103,56L159,23L159,65L121,87L82,109L46,89ZM174,23L231,56L287,89L251,109L213,87L174,65L174,23ZM295,101L295,232L259,211L259,122L295,101Z"/>
            <path d="M242,219L208,238L174,258L174,250L204,232L235,215L242,219ZM159,258L125,238L92,219L98,215L129,232L159,250L159,258ZM84,206L84,128L91,132L91,202L84,206ZM92,115L125,95L159,76L159,84L129,101L98,119L92,115ZM174,76L208,95L242,115L235,119L204,101L174,84L174,76ZM249,128L249,206L242,202L242,132L249,128Z" style="fill-rule:nonzero;"/>
        </g>
    </g>
</svg>
